<?xml version="1.0" encoding="utf-8"?>
<!-- Generator: Adobe Illustrator 23.0.6, SVG Export Plug-In . SVG Version: 6.00 Build 0)  -->
<svg version="1.1" id="Capa_1" xmlns="http://www.w3.org/2000/svg" xmlns:xlink="http://www.w3.org/1999/xlink" x="0px" y="0px"
	 viewBox="0 0 747.6 223.6" style="enable-background:new 0 0 747.6 223.6;" xml:space="preserve">
<style type="text/css">
	.st0{fill:#A2BD38;}
	.st1{fill:#8EA028;}
	.st2{fill:#647715;}
	.st3{fill:#B6C947;}
	.st4{fill:#C0D85B;}
</style>
<g>

		<path class="st0" d="M442.1,32.5c17.3,0.3,34.3,6,49.1,15c16.8,10.3,31.2,25.9,36.3,44.9c4.4,16.2,1.7,33.9-5.4,49.1
			c-7.1,15.2-18.5,28.2-31.4,39c-10.1,8.5-21.6,16-34.4,19c-14.3,3.3-29.7,0.7-42.7-6.1c-13-6.8-23.7-17.6-31.4-30.2
			c-19-31.1-19.4-73.8,1.6-103.6C405.9,28.4,442.1,32.5,442.1,32.5z"/>

		<path class="st1" d="M434.1,93.6c0,0-19-41.1-7.7-46.5C437.6,41.8,441.8,76.7,434.1,93.6z"/>
	
			<path class="st2" d="M437.3,75.3c0.3,2.5-0.3,16.7-2.9,17c-2.6,0.3-6.2-13.4-6.5-15.9c-0.3-2.5,1.6-4.8,4.2-5
				C434.6,71,437,72.8,437.3,75.3z"/>
	
		<path class="st1" d="M448.1,97.7c0,0-3.7-45.1,8.7-46.3C469.1,50.3,461.1,84.5,448.1,97.7z"/>
			<path class="st2" d="M457.3,81.6c-0.6,2.4-6,15.6-8.6,14.9c-2.5-0.6-1.2-14.8-0.6-17.2c0.6-2.4,3.2-3.9,5.7-3.3
				C456.4,76.7,457.9,79.2,457.3,81.6z"/>
	
		<path class="st1" d="M460,104.2c0,0,8.1-44.6,20.4-42.5C492.6,63.8,476,94.8,460,104.2z"/>

			<path class="st2" d="M473.1,91.1c-1.2,2.2-9.9,13.5-12.1,12.2c-2.3-1.3,2.6-14.6,3.8-16.8c1.2-2.2,4.1-3,6.4-1.7
				C473.4,86.1,474.3,88.9,473.1,91.1z"/>
	
		<path class="st1" d="M464.8,111.9c0,0,30.3-33.7,39.6-25.4C513.8,94.6,483.4,112.3,464.8,111.9z"/>

			<path class="st2" d="M482.9,107.6c-2.2,1.2-15.5,6.3-16.8,4c-1.3-2.3,9.9-11,12.1-12.3c2.2-1.2,5-0.4,6.3,1.9
				S485.1,106.3,482.9,107.6z"/>
	
		<path class="st1" d="M465.6,119.7c0,0,44.3-9.6,47,2.6C515.4,134.4,480.4,130.9,465.6,119.7z"/>

			<path class="st2" d="M482.8,126.8c-2.5-0.3-16.2-3.9-15.9-6.6c0.3-2.6,14.5-3.2,17-2.9c2.5,0.3,4.3,2.6,4,5.2
				C487.5,125.2,485.3,127.1,482.8,126.8z"/>
	
		<path class="st1" d="M462.6,127.8c0,0,44.5,8.3,42.4,20.6C502.9,160.6,472,143.8,462.6,127.8z"/>

			<path class="st2" d="M475.7,141c-2.2-1.2-13.4-9.9-12.2-12.2c1.3-2.3,14.6,2.7,16.8,3.9c2.2,1.2,2.9,4.1,1.7,6.4
				C480.8,141.4,477.9,142.2,475.7,141z"/>
		<path class="st1" d="M456.5,138.1c0,0,38.4,24,32,34.6C482,183.3,459.3,156.4,456.5,138.1z"/>
	
			<path class="st2" d="M463.9,155.2c-1.6-1.9-8.9-14.1-6.9-15.8c2-1.7,12.6,7.8,14.2,9.8c1.6,1.9,1.3,4.9-0.8,6.5
				C468.4,157.3,465.5,157.1,463.9,155.2z"/>
	
		<path class="st1" d="M447.2,141.6c0,0,16.2,42.3,4.6,46.9C440.2,193,438.4,157.9,447.2,141.6z"/>

			<path class="st2" d="M442.8,159.6c-0.1-2.5,1.4-16.6,4.1-16.7c2.6-0.1,5.3,13.8,5.4,16.4c0.1,2.5-1.9,4.6-4.6,4.8
				C445.1,164.1,442.9,162.1,442.8,159.6z"/>
	
		<path class="st1" d="M440.8,139.2c0,0-10.7,44-22.8,41.2C405.8,177.5,424.3,147.6,440.8,139.2z"/>

			<path class="st2" d="M426.9,151.5c1.3-2.1,10.6-12.9,12.9-11.5c2.2,1.4-3.5,14.4-4.8,16.5c-1.3,2.1-4.2,2.7-6.4,1.3
				C426.3,156.5,425.6,153.7,426.9,151.5z"/>
	
		<path class="st1" d="M431.7,132.4c0,0-28.4,35.3-38.2,27.5C383.7,152.2,413.2,133,431.7,132.4z"/>

			<path class="st2" d="M413.9,137.6c2.1-1.4,15.1-7.1,16.5-4.9c1.4,2.2-9.3,11.6-11.4,12.9c-2.1,1.4-5,0.7-6.4-1.5
				C411.2,141.9,411.8,139,413.9,137.6z"/>

		<path class="st1" d="M429.2,120.8c0,0-38.6,23.8-45.2,13.2C377.4,123.5,411.6,115.2,429.2,120.8z"/>

			<path class="st2" d="M410.7,119.8c2.5-0.6,16.6-1.7,17.2,0.9c0.6,2.6-12.6,7.8-15.1,8.4c-2.5,0.6-4.9-1-5.5-3.6
				C406.7,122.9,408.2,120.4,410.7,119.8z"/>
	
		<path class="st1" d="M429.2,110.1c0,0-45.2,3-46.2-9.4C382.1,88.4,416.2,96.9,429.2,110.1z"/>

			<path class="st2" d="M413.3,100.6c2.4,0.6,15.5,6.3,14.8,8.8c-0.7,2.5-14.8,1-17.2,0.4c-2.4-0.6-3.9-3.2-3.2-5.7
				C408.3,101.5,410.8,100,413.3,100.6z"/>
	
		<path class="st1" d="M426.5,97.2c0,0-42.2-16.6-37.7-28.2C393.2,57.4,420.4,79.7,426.5,97.2z"/>
			<path class="st2" d="M416.2,81.8c1.9,1.6,11.3,12.3,9.6,14.3c-1.7,2-13.8-5.4-15.7-7c-1.9-1.6-2.1-4.6-0.4-6.6
				C411.3,80.5,414.2,80.2,416.2,81.8z"/>
	<path class="st3" d="M473.2,114C473.2,114,473.2,114,473.2,114c0-0.2,0-0.4-0.1-0.5c-4.2-16.1-24.2-23.9-39.2-25.1
		c-4.9-0.4-12.7-0.8-15,4.9c-1,2.5-0.2,4.3,0.6,6.7c0.8,2.4,2.8,4.3,3.2,6.9c0.6,3.6-0.7,8-1.4,11.4c-1.6,7.2-3.3,12.9,2.3,18.9
		c5.3,5.6,15.5,9,23,9.5C461.4,147.6,474.2,127.2,473.2,114z"/>
	<path class="st4" d="M475.6,114C475.6,114,475.6,114,475.6,114c0-0.2,0-0.4-0.1-0.5c-4.2-16.1-24.2-23.9-39.2-25.1
		c-4.9-0.4-12.7-0.8-15,4.9c-1,2.5-0.2,4.3,0.6,6.7c0.8,2.4,2.8,4.3,3.2,6.9c0.6,3.6-0.7,8-1.4,11.4c-1.6,7.2-3.3,12.9,2.3,18.9
		c5.3,5.6,15.5,9,23,9.5C463.8,147.6,476.6,127.2,475.6,114z"/>
</g>
<g className="fonts">
	<path d="M119.1,49.7L75.2,99.3l48.3,63.9c1.2,1.5,1.9,2.8,2.1,4c0.2,1.2,0.3,2.4,0.3,3.5c0,1.6-0.3,3.3-1,5.1
		c-0.7,1.8-1.7,3.3-3,4.7c-1.3,1.4-2.9,2.6-4.7,3.5c-1.8,1-3.9,1.4-6.3,1.4c-5.3,0-9.6-2.1-12.8-6.4l-42.8-57.3l-4,4.4v45
		c0,3.8-1.5,7.2-4.5,10c-3,2.9-6.7,4.3-10.9,4.3c-4.3,0-7.9-1.4-10.9-4.3c-3-2.9-4.5-6.2-4.5-10V40.2c0-3.8,1.5-7.1,4.5-9.9
		c3-2.8,6.6-4.2,10.9-4.2c4.3,0,7.9,1.4,10.9,4.2c3,2.8,4.5,6.1,4.5,9.9v41.9L95,32.5c1.3-1.6,3.1-3.1,5.4-4.4c2.3-1.3,4.7-2,7.2-2
		c1.6,0,3.3,0.4,5.2,1.1c1.8,0.7,3.5,1.8,5,3.1c1.5,1.3,2.7,2.8,3.6,4.5c1,1.7,1.4,3.5,1.4,5.4c0,1.6-0.2,3.1-0.6,4.4
		C121.9,45.9,120.8,47.6,119.1,49.7z"/>
	<path d="M164.5,41.5c0,4.3-1.7,7.9-5,10.9c-3.3,3-7.4,4.5-12.2,4.5c-4.8,0-8.9-1.5-12.2-4.5c-3.3-3-5-6.6-5-10.9
		c0-4.3,1.7-7.9,5-10.9c3.3-3,7.4-4.5,12.2-4.5c4.9,0,8.9,1.5,12.2,4.5C162.8,33.6,164.5,37.3,164.5,41.5z M162.5,84.5v86.9
		c0,3.8-1.5,7.1-4.4,9.7c-2.9,2.6-6.5,4-10.8,4c-4.3,0-7.9-1.3-10.8-4c-2.9-2.6-4.4-5.9-4.4-9.7V84.5c0-3.7,1.5-6.8,4.4-9.5
		c2.9-2.6,6.5-4,10.8-4c4.3,0,7.9,1.3,10.8,4C161,77.7,162.5,80.9,162.5,84.5z"/>
	<path d="M274.7,42.4l12.8,51.8c1.6,6.2,2.8,12.3,3.5,18.4c0.7,6.1,1.7,12.2,2.9,18.4c1.2-6.2,2.2-12.3,3-18.4
		c0.8-6.1,2-12.2,3.6-18.4L314.6,38c0.9-3.5,2.6-6.3,5.2-8.3c2.6-2,5.5-3,8.9-3c1.9,0,3.9,0.3,5.8,0.8c2,0.5,3.8,1.3,5.5,2.4
		c1.7,1.1,3.1,2.5,4.2,4.2c1.1,1.7,1.7,3.7,1.7,6.1c0,0.3,0,0.7,0,1.1s-0.1,1-0.4,1.8l-33.1,128.5c-1.2,3.7-3.2,6.9-6,9.7
		c-2.8,2.8-6.8,4.2-12.1,4.2c-5.3,0-9.4-1.4-12.2-4.3c-2.9-2.9-4.9-6.1-6.1-9.8l-13-54c-1.5-5.7-2.6-11.6-3.3-17.5
		c-0.7-6-1.6-11.9-2.6-17.7c-1,5.9-1.9,11.8-2.6,17.7c-0.7,6-1.8,11.8-3.3,17.5l-13.2,54.5c-1,3.2-2.8,6.3-5.4,9.3
		c-2.6,2.9-6.8,4.4-12.7,4.4c-4.6,0-8.5-1.5-11.8-4.4c-3.3-2.9-5.5-6.1-6.5-9.5L169.1,44.2c-0.1-0.9-0.4-1.8-0.7-2.9
		c0-0.4-0.1-0.9-0.2-1.3c0-2.1,0.5-3.9,1.5-5.5c1-1.6,2.3-3,3.9-4.2c1.5-1.2,3.3-2.1,5.3-2.6c2-0.6,3.9-0.9,5.8-0.9
		c3.2,0,6.2,0.8,8.9,2.5c2.7,1.7,4.5,4.4,5.4,8l14.5,56.9c1.6,6,2.8,12.1,3.5,18.2c0.7,6.1,1.7,12.2,2.9,18.4
		c1.2-5.9,2.1-12,2.9-18.3c0.7-6.3,1.8-12.4,3.3-18.3l13-51.8c1.3-5.1,3.1-9.1,5.4-12c2.3-2.9,6.4-4.3,12.5-4.3
		c5.6,0,9.6,1.5,12.1,4.4C271.7,33.5,273.5,37.4,274.7,42.4z"/>
	<path d="M385.4,41.5c0,4.3-1.7,7.9-5,10.9c-3.3,3-7.4,4.5-12.2,4.5c-4.8,0-8.9-1.5-12.2-4.5c-3.3-3-5-6.6-5-10.9
		c0-4.3,1.7-7.9,5-10.9c3.3-3,7.4-4.5,12.2-4.5c4.9,0,8.9,1.5,12.2,4.5C383.7,33.6,385.4,37.3,385.4,41.5z M383.4,84.5v86.9
		c0,3.8-1.5,7.1-4.4,9.7c-2.9,2.6-6.5,4-10.8,4c-4.3,0-7.9-1.3-10.8-4c-2.9-2.6-4.4-5.9-4.4-9.7V84.5c0-3.7,1.5-6.8,4.4-9.5
		c2.9-2.6,6.5-4,10.8-4c4.3,0,7.9,1.3,10.8,4C381.9,77.7,383.4,80.9,383.4,84.5z"/>
</g>
<g className="fonts">
	<path d="M535,135.4c-2.9,0-5.7-0.1-8.3-0.3c-2.6-0.2-5.5-0.6-8.7-1v7.3c0,3.8,1.4,6.8,4.3,9c2.9,2.2,7.3,3.3,13.3,3.3
		c3.5,0,6.8-0.4,9.9-1.2c3.1-0.8,6.4-2,9.9-3.6c0.4-0.3,1.2-0.6,2.2-0.9c1-0.3,2.5-0.4,4.4-0.4c2.6,0,4.9,0.4,6.6,1.2
		c1.8,0.8,3.2,1.8,4.2,3c1,1.2,1.8,2.5,2.2,3.9c0.4,1.4,0.7,2.8,0.7,4.1c0,3.8-1.5,7-4.6,9.5c-3.1,2.5-6.8,4.5-11.2,6
		c-4.4,1.5-9,2.5-13.9,3.1c-4.8,0.6-9,0.9-12.6,0.9c-7.2,0-13.7-1-19.4-3c-5.7-2-10.5-4.7-14.4-8.2c-3.9-3.5-6.9-7.5-8.9-12.2
		c-2.1-4.7-3.1-9.8-3.1-15.2v-36.8c0-5.6,1-10.8,3-15.5c2-4.8,5-8.9,8.9-12.5c4-3.5,8.9-6.3,14.8-8.3c5.9-2,12.6-3,20.3-3
		c14.5,0,25.4,3.5,32.5,10.4c7.1,6.9,10.7,15.9,10.7,27.1c0,10.6-3.4,18.8-10.1,24.7C560.8,132.5,550,135.4,535,135.4z M547.5,100.4
		c0-4.4-1.1-7.6-3.4-9.5c-2.3-1.9-5.5-2.9-9.8-2.9c-5.3,0-9.3,1.3-12.1,3.9c-2.8,2.6-4.2,6.1-4.2,10.5v9.5c3.5,0.3,6.8,0.5,9.7,0.7
		c2.9,0.1,5,0.2,6.2,0.2c4.3,0,7.6-0.9,10-2.6C546.3,108.3,547.5,105.1,547.5,100.4z"/>
	<path d="M695.9,165.4v-61.1c0-3.8-1.1-7.1-3.3-9.8c-2.2-2.7-5.4-4.1-9.5-4.1c-2.9,0-5.9,0.7-8.8,2c-2.9,1.3-5.9,3.2-8.8,5.7
		c0.1,1,0.3,2,0.3,2.9c0.1,0.9,0.1,1.8,0.1,2.9v61.5c0,3.8-1.2,7-3.7,9.6c-2.5,2.6-6.3,3.9-11.5,3.9c-5.1,0-9-1.3-11.5-3.9
		c-2.5-2.6-3.7-5.8-3.7-9.6v-57.1c0-5.1-0.7-9.4-2.1-12.8c-1.4-3.4-4.5-5.1-9.4-5.1c-2.8,0-5.8,0.6-8.9,1.7
		c-3.2,1.1-6.4,2.5-9.8,4.1c0.1,0.3,0.2,0.7,0.2,1.2c0,0.5,0,0.9,0,1.2v66.8c0,3.8-1.2,7-3.7,9.6c-2.5,2.6-6.3,3.9-11.5,3.9
		c-5.1,0-9-1.3-11.5-3.9c-2.5-2.6-3.7-5.8-3.7-9.6V98.6c0-3.7-0.2-6-0.6-6.8c-0.4-0.9-0.8-1.7-1.2-2.4c-1.6-2.1-2.6-3.7-3.1-4.8
		c-0.4-1.2-0.7-2.3-0.7-3.5c0-4,1.4-7.1,4.3-9.5c2.9-2.3,6.2-3.5,10-3.5c2.5,0,4.7,0.6,6.6,1.7c1.9,1.1,3.6,2.6,5.1,4.5
		c5-3.1,10-5.5,15.1-7.2c5.1-1.7,10-2.5,14.7-2.5c9,0,17.5,3.2,25.6,9.7c6-3.2,11.6-5.7,16.6-7.3c5.1-1.6,10.6-2.4,16.6-2.4
		c13.1,0,23.4,3.6,30.9,10.8c7.5,7.2,11.2,16.8,11.2,28.7v61.5c0,3.8-1.3,7-3.7,9.6c-2.5,2.6-6.3,3.9-11.5,3.9
		c-5.1,0-9-1.3-11.5-3.9C697.1,172.4,695.9,169.2,695.9,165.4z"/>
</g>
</svg>
